<svg width="96" height="14" viewBox="0 0 96 14" fill="none" xmlns="http://www.w3.org/2000/svg">
<path d="M10.628 9.706C10.628 10.426 10.442 11.032 10.07 11.524C9.698 12.004 9.194 12.37 8.558 12.622C7.934 12.874 7.25 13 6.506 13H0.332V0.219999H7.172C7.772 0.219999 8.288 0.381999 8.72 0.705999C9.164 1.018 9.5 1.426 9.728 1.93C9.968 2.422 10.088 2.938 10.088 3.478C10.088 4.09 9.932 4.672 9.62 5.224C9.308 5.776 8.852 6.184 8.252 6.448C8.984 6.664 9.56 7.054 9.98 7.618C10.412 8.182 10.628 8.878 10.628 9.706ZM8.126 9.238C8.126 8.914 8.06 8.626 7.928 8.374C7.796 8.11 7.616 7.906 7.388 7.762C7.172 7.606 6.92 7.528 6.632 7.528H2.816V10.894H6.506C6.806 10.894 7.076 10.822 7.316 10.678C7.568 10.522 7.766 10.318 7.91 10.066C8.054 9.814 8.126 9.538 8.126 9.238ZM2.816 2.344V5.566H6.128C6.404 5.566 6.656 5.5 6.884 5.368C7.112 5.236 7.292 5.05 7.424 4.81C7.568 4.57 7.64 4.282 7.64 3.946C7.64 3.622 7.574 3.34 7.442 3.1C7.322 2.86 7.154 2.674 6.938 2.542C6.734 2.41 6.5 2.344 6.236 2.344H2.816ZM12.5664 13V0.219999H15.0504V13H12.5664ZM20.2008 4.792V13H17.7168V0.219999H19.6968L26.3028 8.644V0.237999H28.7868V13H26.7168L20.2008 4.792ZM36.7553 13.09C35.9273 13.09 35.1413 12.922 34.3973 12.586C33.6653 12.25 33.0173 11.788 32.4533 11.2C31.9013 10.6 31.4693 9.904 31.1573 9.112C30.8453 8.32 30.6893 7.462 30.6893 6.538C30.6893 5.662 30.8453 4.84 31.1573 4.072C31.4693 3.292 31.9073 2.608 32.4713 2.02C33.0353 1.432 33.6953 0.969999 34.4513 0.633999C35.2073 0.297999 36.0293 0.129999 36.9173 0.129999C38.1173 0.129999 39.1433 0.387999 39.9953 0.903999C40.8593 1.408 41.5073 2.08 41.9393 2.92L40.0853 4.288C39.7613 3.652 39.3053 3.166 38.7173 2.83C38.1413 2.494 37.5113 2.326 36.8273 2.326C36.2873 2.326 35.7953 2.44 35.3513 2.668C34.9073 2.896 34.5233 3.208 34.1993 3.604C33.8753 4 33.6233 4.456 33.4433 4.972C33.2753 5.488 33.1913 6.034 33.1913 6.61C33.1913 7.222 33.2813 7.786 33.4613 8.302C33.6533 8.818 33.9173 9.268 34.2533 9.652C34.6013 10.036 35.0033 10.342 35.4593 10.57C35.9153 10.786 36.4193 10.894 36.9713 10.894C37.6193 10.894 38.2373 10.726 38.8253 10.39C39.4253 10.054 39.9833 9.562 40.4993 8.914V11.362C39.4313 12.514 38.1833 13.09 36.7553 13.09ZM40.3193 8.248H37.7453V6.43H42.3713V13H40.3193V8.248ZM53.3623 10.822V13H44.4883V0.219999H53.2003V2.398H46.9723V5.476H52.3543V7.492H46.9723V10.822H53.3623Z" fill="white"/>
<path d="M59.623 13V0.219999H62.107V10.822H68.623V13H59.623ZM70.1347 13V0.219999H72.6187V13H70.1347ZM82.8991 3.568C82.8151 3.484 82.6591 3.37 82.4311 3.226C82.2151 3.082 81.9451 2.944 81.6211 2.812C81.3091 2.68 80.9671 2.566 80.5951 2.47C80.2231 2.362 79.8451 2.308 79.4611 2.308C78.7891 2.308 78.2791 2.434 77.9311 2.686C77.5951 2.938 77.4271 3.292 77.4271 3.748C77.4271 4.096 77.5351 4.372 77.7511 4.576C77.9671 4.78 78.2911 4.954 78.7231 5.098C79.1551 5.242 79.6951 5.398 80.3431 5.566C81.1831 5.77 81.9091 6.022 82.5211 6.322C83.1451 6.61 83.6191 6.994 83.9431 7.474C84.2791 7.942 84.4471 8.566 84.4471 9.346C84.4471 10.03 84.3211 10.618 84.0691 11.11C83.8171 11.59 83.4691 11.98 83.0251 12.28C82.5811 12.58 82.0771 12.802 81.5131 12.946C80.9491 13.078 80.3491 13.144 79.7131 13.144C79.0771 13.144 78.4411 13.078 77.8051 12.946C77.1691 12.814 76.5571 12.628 75.9691 12.388C75.3811 12.136 74.8411 11.836 74.3491 11.488L75.4471 9.346C75.5551 9.454 75.7471 9.598 76.0231 9.778C76.2991 9.946 76.6351 10.12 77.0311 10.3C77.4271 10.468 77.8591 10.612 78.3271 10.732C78.7951 10.852 79.2691 10.912 79.7491 10.912C80.4211 10.912 80.9311 10.798 81.2791 10.57C81.6271 10.342 81.8011 10.018 81.8011 9.598C81.8011 9.214 81.6631 8.914 81.3871 8.698C81.1111 8.482 80.7271 8.296 80.2351 8.14C79.7431 7.972 79.1611 7.792 78.4891 7.6C77.6851 7.372 77.0131 7.12 76.4731 6.844C75.9331 6.556 75.5311 6.196 75.2671 5.764C75.0031 5.332 74.8711 4.792 74.8711 4.144C74.8711 3.268 75.0751 2.536 75.4831 1.948C75.9031 1.348 76.4671 0.898 77.1751 0.598C77.8831 0.286 78.6691 0.129999 79.5331 0.129999C80.1331 0.129999 80.6971 0.195999 81.2251 0.327999C81.7651 0.459999 82.2691 0.634 82.7371 0.85C83.2051 1.066 83.6251 1.3 83.9971 1.552L82.8991 3.568ZM95.8822 2.398H91.7962V13H89.3302V2.398H85.2442V0.219999H95.8822V2.398Z" fill="#E33737"/>
</svg>
